<svg width="34" height="34" viewBox="0 0 34 34" fill="none" xmlns="http://www.w3.org/2000/svg">
<path fill-rule="evenodd" clip-rule="evenodd" d="M29.75 2.125H8.5C6.15294 2.125 4.25 4.02794 4.25 6.375V10.625H6.375V6.375C6.375 5.202 7.327 4.25 8.5 4.25H29.75C30.923 4.25 31.875 5.202 31.875 6.375V27.625C31.875 28.798 30.923 29.75 29.75 29.75H8.5C7.327 29.75 6.375 28.798 6.375 27.625V23.375H4.25V27.625C4.25 29.9721 6.15294 31.875 8.5 31.875H29.75C32.0971 31.875 34 29.9721 34 27.625V6.375C34 4.02794 32.0971 2.125 29.75 2.125ZM18.4269 23.6332C18.0125 24.0475 18.0125 24.7212 18.4269 25.1355C18.8413 25.551 19.5149 25.551 19.9304 25.1355L27.2606 17.8054C27.4816 17.5833 27.5761 17.289 27.5613 17C27.5761 16.711 27.4816 16.4167 27.2606 16.1957L19.9304 8.86549C19.5149 8.45006 18.8413 8.45006 18.4269 8.86549C18.0125 9.27881 18.0125 9.95243 18.4269 10.3679L23.9976 15.9375H1.0625C0.474938 15.9375 0 16.4135 0 17C0 17.5876 0.474938 18.0625 1.0625 18.0625H23.9976L18.4269 23.6332Z" fill="black"/>
</svg>
