<svg width="36" height="36" viewBox="0 0 36 36" fill="none" xmlns="http://www.w3.org/2000/svg">
<path d="M4.71825 10.7759C5.77292 10.7759 6.61667 9.93219 6.61667 8.89256C6.61667 7.83789 5.77292 6.99414 4.71825 6.99414C3.67862 6.99414 2.81982 7.83789 2.81982 8.89256C2.81982 9.93219 3.67862 10.7759 4.71825 10.7759ZM11.3779 10.0979H31.9594C32.6524 10.0979 33.1798 9.57058 33.1798 8.89256C33.1798 8.1995 32.6524 7.67216 31.9594 7.67216H11.3779C10.6998 7.67216 10.1725 8.1995 10.1725 8.89256C10.1725 9.57058 10.6998 10.0979 11.3779 10.0979ZM4.71825 19.8915C5.77292 19.8915 6.61667 19.0477 6.61667 17.993C6.61667 16.9384 5.77292 16.0946 4.71825 16.0946C3.67862 16.0946 2.81982 16.9384 2.81982 17.993C2.81982 19.0477 3.67862 19.8915 4.71825 19.8915ZM11.3779 19.2134H31.9594C32.6524 19.2134 33.1798 18.6711 33.1798 17.993C33.1798 17.315 32.6524 16.7877 31.9594 16.7877H11.3779C10.6998 16.7877 10.1725 17.315 10.1725 17.993C10.1725 18.6711 10.6998 19.2134 11.3779 19.2134ZM4.71825 29.007C5.77292 29.007 6.61667 28.1482 6.61667 27.1086C6.61667 26.0538 5.77292 25.2101 4.71825 25.2101C3.67862 25.2101 2.81982 26.0538 2.81982 27.1086C2.81982 28.1482 3.67862 29.007 4.71825 29.007ZM11.3779 28.3139H31.9594C32.6524 28.3139 33.1798 27.7866 33.1798 27.1086C33.1798 26.4154 32.6524 25.8881 31.9594 25.8881H11.3779C10.6998 25.8881 10.1725 26.4154 10.1725 27.1086C10.1725 27.7866 10.6998 28.3139 11.3779 28.3139Z" fill="#EDEDED"/>
</svg>
