<svg width="24" height="24" viewBox="0 0 24 24" fill="none" xmlns="http://www.w3.org/2000/svg">
<path d="M1.98967 1.9915C2.33641 1.64476 2.89858 1.64476 3.24532 1.9915L22.0256 20.7718C22.3724 21.1185 22.3724 21.6807 22.0256 22.0274C21.6789 22.3742 21.1167 22.3742 20.77 22.0274L1.98967 3.24714C1.64293 2.90041 1.64293 2.33823 1.98967 1.9915Z" fill="black"/>
<path d="M22.0103 1.97392C21.6635 1.62718 21.1013 1.62718 20.7546 1.97392L1.97428 20.7543C1.62755 21.101 1.62755 21.6632 1.97428 22.0099C2.32102 22.3566 2.8832 22.3566 3.22993 22.0099L22.0103 3.22956C22.357 2.88283 22.357 2.32066 22.0103 1.97392Z" fill="black"/>
</svg>
