<svg width="512" height="512" viewBox="0 0 512 512" fill="none" xmlns="http://www.w3.org/2000/svg">
<path d="M198.124 54.6876C199.432 55.2864 200.742 55.8825 202.053 56.4759C204.743 57.6988 207.426 58.9363 210.103 60.1876C214.834 62.3958 219.6 64.5233 224.367 66.6503C227.288 67.9539 230.206 69.2653 233.122 70.5793C242.426 74.7674 251.773 78.857 261.12 82.947C286.417 94.0202 286.417 94.0202 298.249 99.3751C299.666 100.008 299.666 100.008 301.112 100.653C307.209 103.438 312.229 106.131 315.749 112.063C316.36 113.07 316.36 113.07 316.984 114.098C320.349 120.401 320.174 129.769 318.28 136.59C316.276 140.801 313.548 143.959 309.999 147C309.195 147.701 308.39 148.403 307.562 149.125C305.2 150.737 303.778 151.019 300.866 151.27C294.124 151.814 294.124 151.814 288.678 155.468C285.76 160.036 283.978 165.121 282.124 170.188C281.519 171.718 280.908 173.246 280.292 174.772C278.803 178.494 277.383 182.237 275.999 186C287.838 191.595 299.778 196.945 311.749 202.25C313.735 203.131 315.722 204.013 317.708 204.894C337.229 213.556 356.765 222.185 376.303 230.81C384.515 234.435 392.726 238.061 400.937 241.688C401.829 242.082 402.721 242.476 403.641 242.882C413.039 247.034 422.435 251.19 431.823 255.363C432.607 255.712 433.391 256.06 434.199 256.419C437.992 258.105 441.784 259.794 445.573 261.489C452.167 264.436 458.769 267.343 465.437 270.121C466.576 270.602 467.715 271.083 468.889 271.578C470.941 272.44 472.999 273.287 475.066 274.113C483.925 277.859 492.613 284.228 496.999 293C500.613 303.226 501.19 311.838 496.999 322C492.16 331.107 485.959 337.098 476.081 340.301C459.886 343.975 446.359 336.28 431.982 329.816C428.026 328.038 424.065 326.272 420.105 324.504C419.277 324.134 418.448 323.764 417.595 323.383C409.28 319.671 400.941 316.014 392.599 312.361C377.253 305.642 361.93 298.874 346.624 292.063C314.129 277.603 281.6 263.22 248.999 249C245.098 252.902 243.236 258.49 240.965 263.474C240.323 264.862 239.665 266.242 238.991 267.614C234.792 275.443 234.792 275.443 234.916 283.871C236.452 286.156 238.086 288.03 239.999 290C243.062 296.405 243.091 304.446 240.937 311.188C237.863 318.181 232.798 323.173 225.894 326.309C211.734 331.476 198.904 323.64 186.131 317.891C182.159 316.103 178.18 314.328 174.202 312.551C173.369 312.178 172.537 311.806 171.678 311.422C163.2 307.635 154.695 303.908 146.188 300.185C141.053 297.936 135.921 295.678 130.79 293.421C126.396 291.489 121.999 289.563 117.599 287.646C113.189 285.725 108.785 283.793 104.384 281.853C102.731 281.127 101.077 280.405 99.4209 279.688C97.1267 278.694 94.8398 277.685 92.5539 276.672C91.8891 276.388 91.2243 276.105 90.5393 275.812C82.8574 272.365 77.6504 267.583 73.9992 260C71.7164 252.781 71.8851 244.426 75.0617 237.563C78.8116 231.074 83.6692 226.937 90.7792 224.547C93.0965 223.976 95.1046 223.947 97.4841 223.925C100.838 223.573 100.838 223.573 103.395 221.541C104.581 219.411 105.487 217.282 106.366 215.008C106.723 214.172 107.081 213.337 107.448 212.476C108.624 209.705 109.748 206.916 110.874 204.125C111.695 202.17 112.519 200.216 113.347 198.264C115.066 194.203 116.768 190.134 118.459 186.061C121.963 177.653 125.674 169.339 129.385 161.02C130.954 157.493 132.509 153.96 134.064 150.426C137.324 143.02 140.611 135.627 143.943 128.253C145.663 124.442 147.372 120.625 149.079 116.807C149.895 114.99 150.717 113.174 151.545 111.362C152.686 108.863 153.808 106.357 154.925 103.848C155.44 102.738 155.44 102.738 155.966 101.607C157.737 97.7575 157.737 97.7575 157.316 93.6854C156.882 93.1293 156.447 92.5731 155.999 92.0001C151.09 85.0969 148.911 78.4422 149.999 70.0001C152.232 61.2689 156.892 55.309 164.499 50.5626C175.977 45.6713 187.575 49.6459 198.124 54.6876Z" fill="#EDEDED"/>
<path d="M102.201 370.839C103.685 370.832 103.685 370.832 105.2 370.824C108.456 370.81 111.712 370.803 114.968 370.797C116.088 370.795 117.208 370.792 118.362 370.789C124.294 370.774 130.226 370.765 136.158 370.76C142.245 370.755 148.333 370.731 154.42 370.702C159.135 370.684 163.851 370.678 168.566 370.677C170.808 370.674 173.05 370.666 175.292 370.653C196.039 370.539 216.969 371.262 233.163 385.965C240.074 393.121 244.319 402.026 244.999 412C245.659 412.083 246.319 412.165 246.999 412.25C255.794 414.449 264.119 420.046 269.109 427.703C273.57 435.465 276.102 442.522 276.374 451.5C276.423 452.604 276.472 453.707 276.523 454.844C275.804 459.182 274.502 460.357 270.999 463C267.61 463.735 264.284 463.671 260.827 463.629C259.276 463.639 259.276 463.639 257.694 463.65C254.224 463.668 250.756 463.65 247.287 463.632C244.801 463.637 242.316 463.644 239.831 463.653C233.778 463.67 227.726 463.663 221.674 463.645C216.755 463.631 211.836 463.627 206.918 463.631C206.218 463.631 205.518 463.632 204.796 463.632C203.374 463.633 201.952 463.634 200.53 463.635C187.954 463.644 175.379 463.627 162.804 463.597C150.601 463.569 138.398 463.561 126.195 463.577C112.907 463.594 99.6197 463.598 86.3318 463.58C84.9149 463.578 83.498 463.576 82.0811 463.575C81.0354 463.573 81.0354 463.573 79.9686 463.572C75.0556 463.566 70.1427 463.57 65.2298 463.576C58.6174 463.585 52.0054 463.572 45.393 463.544C42.9634 463.537 40.5338 463.537 38.1041 463.545C34.793 463.553 31.4829 463.537 28.1719 463.515C26.7222 463.527 26.7222 463.527 25.2433 463.54C21.0069 463.487 18.6215 463.374 14.9261 461.156C11.6124 457.449 11.8798 454.333 12.1244 449.563C13.0255 438.637 17.0725 428.734 24.9994 421C29.6536 417.479 34.2683 414.387 39.9369 412.875C44.4912 410.087 44.6722 406.357 45.9877 401.356C48.7222 392.287 55.8 384.215 63.7924 379.274C76.1451 372.786 88.4188 370.856 102.201 370.839Z" fill="#EDEDED"/>
</svg>
