<svg width="28" height="27" viewBox="0 0 28 27" fill="none" xmlns="http://www.w3.org/2000/svg">
<path d="M14.0016 1.16026e-06C6.26567 -0.0030973 0 6.20002 0 13.8563C0 19.9107 3.91956 25.0573 9.37817 26.9473C10.1133 27.1301 10.0007 26.6127 10.0007 26.2595V23.8582C5.75578 24.3508 5.58373 21.5684 5.29907 21.1036C4.72349 20.1307 3.36275 19.8828 3.76941 19.4181C4.73601 18.9254 5.72137 19.542 6.86314 21.2121C7.68897 22.4236 9.29997 22.2191 10.1164 22.0177C10.2947 21.2895 10.6763 20.6389 11.2019 20.1338C6.80371 19.353 4.97062 16.6945 4.97062 13.5341C4.97062 12.0003 5.48051 10.5905 6.48151 9.45341C5.84337 7.57884 6.54095 5.97384 6.63479 5.73525C8.45224 5.57413 10.3416 7.02421 10.4887 7.13886C11.5209 6.86309 12.7003 6.71747 14.0203 6.71747C15.3467 6.71747 16.5291 6.86929 17.5708 7.14815C17.9243 6.88169 19.676 5.6361 21.3652 5.78793C21.4559 6.02651 22.1379 7.59433 21.5373 9.44411C22.5508 10.5843 23.0669 12.0065 23.0669 13.5434C23.0669 16.71 21.2213 19.3716 16.8106 20.14C17.1884 20.508 17.4884 20.9469 17.693 21.431C17.8977 21.9151 18.0028 22.4348 18.0025 22.9596V26.4454C18.0275 26.7242 18.0025 27 18.4717 27C24.0116 25.1502 28 19.9665 28 13.8594C28 6.20002 21.7312 1.16026e-06 14.0016 1.16026e-06Z" fill="#292927"/>
</svg>
