<svg width="17" height="35" viewBox="0 0 17 35" fill="none" xmlns="http://www.w3.org/2000/svg">
<path d="M8.14181 0.500192C8.28915 0.500277 8.433 0.574613 8.55439 0.713387C8.67577 0.852161 8.76899 1.04885 8.82172 1.27749L16.1058 32.7552C16.1568 32.9752 16.168 33.2153 16.1381 33.4458C16.1081 33.6763 16.0383 33.8873 15.9372 34.0527C15.8361 34.2182 15.7081 34.331 15.5689 34.3773C15.4298 34.4236 15.2856 34.4013 15.1539 34.3132L8.14159 29.6478L1.12711 34.3135C0.995586 34.4006 0.851635 34.4221 0.712868 34.3754C0.574101 34.3287 0.446532 34.2158 0.345764 34.0505C0.244997 33.8852 0.175398 33.6747 0.145479 33.4447C0.115561 33.2147 0.126621 32.9752 0.177306 32.7555L7.46189 1.27752C7.51474 1.04947 7.60786 0.853329 7.72904 0.714894C7.85021 0.576458 7.99478 0.500496 8.14181 0.500192Z" fill="#0D1846"/>
</svg>
