<svg width="32" height="32" viewBox="0 0 32 32" fill="none" xmlns="http://www.w3.org/2000/svg">
<path d="M16.0007 1.33398C11.5689 1.33398 8.00065 4.90224 8.00065 9.33398V10.6673C6.54323 10.6673 5.33398 11.8766 5.33398 13.334V26.6673C5.33398 28.1247 6.54323 29.334 8.00065 29.334H24.0007C25.4581 29.334 26.6673 28.1247 26.6673 26.6673V13.334C26.6673 11.8766 25.4581 10.6673 24.0007 10.6673V9.33398C24.0007 4.90224 20.4324 1.33398 16.0007 1.33398ZM16.0007 4.00065C19.0356 4.00065 21.334 6.29906 21.334 9.33398V10.6673H10.6673V9.33398C10.6673 6.29906 12.9657 4.00065 16.0007 4.00065ZM8.00065 13.334H24.0007V26.6673H8.00065V13.334ZM16.0007 17.334C14.534 17.334 13.334 18.534 13.334 20.0007C13.334 21.4673 14.534 22.6673 16.0007 22.6673C17.4673 22.6673 18.6673 21.4673 18.6673 20.0007C18.6673 18.534 17.4673 17.334 16.0007 17.334Z" fill="black"/>
</svg>
