<svg
  width="8"
  height="10"
  viewBox="0 0 8 10"
  fill="none"
  xmlns="http://www.w3.org/2000/svg"
>
  <path
    d="M0.214489 5.41133L6.71449 9.91133C6.7895 9.96323 6.87728 9.99363 6.96833 9.99922C7.05938 10.0048 7.15022 9.98539 7.23102 9.94306C7.31183 9.90073 7.37951 9.8371 7.42674 9.75906C7.47397 9.68102 7.49896 9.59155 7.49899 9.50033V0.500331C7.49905 0.40907 7.47413 0.319532 7.42694 0.241422C7.37974 0.163312 7.31206 0.0996093 7.23125 0.0572171C7.15043 0.0148249 7.05955 -0.0046396 6.96846 0.000933235C6.87737 0.00650607 6.78954 0.0369036 6.71449 0.0888315L0.214489 4.58883C0.148268 4.63505 0.0941868 4.69657 0.0568438 4.76817C0.0195007 4.83977 0 4.91933 0 5.00008C0 5.08083 0.0195007 5.16039 0.0568438 5.23199C0.0941868 5.30359 0.148268 5.36512 0.214489 5.41133Z"
    fill="black"
  />
</svg>