<svg width="512" height="512" viewBox="0 0 512 512" fill="none" xmlns="http://www.w3.org/2000/svg">
<g clip-path="url(#clip0_713_2203)">
<path d="M281.578 6.6449C290.924 13.5 298.783 23.3458 301 35.0004C301.09 37.3865 301.122 39.7751 301.12 42.163C301.121 43.2462 301.121 43.2462 301.123 44.3513C301.124 46.7711 301.119 49.1909 301.113 51.6107C301.113 53.3453 301.113 55.0798 301.114 56.8144C301.114 61.5248 301.108 66.2351 301.101 70.9455C301.095 75.8676 301.094 80.7896 301.093 85.7117C301.09 95.0331 301.082 104.354 301.072 113.676C301.061 124.288 301.055 134.899 301.05 145.511C301.04 167.341 301.022 189.171 301 211C302.342 210.993 302.342 210.993 303.712 210.986C325.531 210.876 347.35 210.793 369.169 210.741C379.721 210.716 390.272 210.681 400.824 210.623C410.025 210.573 419.226 210.541 428.427 210.53C433.295 210.523 438.163 210.508 443.031 210.472C447.622 210.438 452.212 210.427 456.803 210.435C458.479 210.433 460.156 210.424 461.832 210.404C477.382 210.234 489.124 213.656 500.672 224.582C510.613 235.113 512.569 247.065 512.34 260.86C511.795 273.197 505.6 282.892 496.812 291.188C488.811 297.698 480.029 301.128 469.837 301.121C469.115 301.121 468.393 301.122 467.649 301.123C465.229 301.125 462.809 301.119 460.389 301.114C458.655 301.114 456.92 301.114 455.186 301.114C450.475 301.115 445.765 301.109 441.055 301.102C436.133 301.095 431.21 301.095 426.288 301.094C416.967 301.091 407.646 301.082 398.324 301.072C387.713 301.061 377.101 301.056 366.489 301.051C344.659 301.04 322.83 301.023 301 301C301.004 301.895 301.009 302.791 301.014 303.713C301.124 325.532 301.207 347.35 301.259 369.169C301.285 379.721 301.32 390.273 301.377 400.824C301.427 410.025 301.459 419.226 301.47 428.427C301.477 433.296 301.492 438.163 301.528 443.031C301.563 447.622 301.573 452.212 301.565 456.803C301.567 458.48 301.576 460.156 301.596 461.833C301.766 477.383 298.345 489.125 287.418 500.672C276.887 510.613 264.936 512.57 251.14 512.34C238.803 511.796 229.108 505.601 220.812 496.813C214.302 488.812 210.872 480.03 210.88 469.838C210.878 468.755 210.878 468.755 210.877 467.649C210.875 465.23 210.881 462.81 210.886 460.39C210.887 458.655 210.886 456.921 210.886 455.186C210.886 450.476 210.891 445.766 210.898 441.055C210.905 436.133 210.905 431.211 210.906 426.289C210.91 416.968 210.918 407.646 210.928 398.325C210.939 387.713 210.944 377.101 210.949 366.49C210.96 344.66 210.977 322.83 211 301C210.105 301.005 209.21 301.01 208.287 301.014C186.469 301.125 164.65 301.208 142.831 301.259C132.279 301.285 121.727 301.32 111.176 301.378C101.975 301.428 92.7739 301.46 83.5727 301.471C78.7046 301.477 73.8368 301.492 68.9688 301.529C64.378 301.563 59.7877 301.573 55.1968 301.566C53.5204 301.567 51.8439 301.577 50.1675 301.596C34.6173 301.767 22.8753 298.345 11.3279 287.418C1.3868 276.888 -0.56985 264.936 -0.340075 251.141C0.2045 238.803 6.39949 229.109 15.1873 220.813C23.1884 214.303 31.9702 210.873 42.1624 210.88C42.8845 210.879 43.6067 210.878 44.3507 210.878C46.7705 210.876 49.1903 210.881 51.6101 210.887C53.3447 210.887 55.0792 210.887 56.8138 210.886C61.5242 210.886 66.2345 210.892 70.9449 210.899C75.867 210.905 80.789 210.906 85.7111 210.907C95.0325 210.91 104.354 210.918 113.675 210.928C124.287 210.94 134.899 210.945 145.51 210.95C167.34 210.96 189.17 210.978 211 211C210.993 209.658 210.993 209.658 210.986 208.288C210.875 186.469 210.793 164.65 210.741 142.831C210.715 132.28 210.68 121.728 210.623 111.176C210.573 101.975 210.54 92.7745 210.529 83.5733C210.523 78.7052 210.508 73.8374 210.471 68.9693C210.437 64.3786 210.427 59.7883 210.434 55.1974C210.433 53.521 210.423 51.8445 210.404 50.1681C210.233 34.6179 213.655 22.8759 224.582 11.3285C239.828 -3.06488 264.203 -4.43832 281.578 6.6449Z" fill="#EDEDED"/>
</g>
<defs>
<clipPath id="clip0_713_2203">
<rect width="512" height="512" fill="white"/>
</clipPath>
</defs>
</svg>
