<svg width="18" height="11" viewBox="0 0 18 11" fill="none" xmlns="http://www.w3.org/2000/svg">
<path fill-rule="evenodd" clip-rule="evenodd" d="M1.18211 1.18211C1.23969 1.12438 1.30809 1.07858 1.38339 1.04733C1.4587 1.01608 1.53943 1 1.62096 1C1.7025 1 1.78323 1.01608 1.85853 1.04733C1.93384 1.07858 2.00224 1.12438 2.05982 1.18211L9.05923 8.18275L16.0586 1.18211C16.1163 1.12447 16.1847 1.07876 16.26 1.04757C16.3353 1.01638 16.416 1.00032 16.4975 1.00032C16.579 1.00032 16.6597 1.01638 16.735 1.04757C16.8103 1.07876 16.8787 1.12447 16.9364 1.18211C16.994 1.23974 17.0397 1.30816 17.0709 1.38345C17.1021 1.45875 17.1181 1.53946 17.1181 1.62096C17.1181 1.70247 17.1021 1.78317 17.0709 1.85847C17.0397 1.93377 16.994 2.00219 16.9364 2.05982L9.49809 9.49809C9.44051 9.55581 9.37211 9.60161 9.2968 9.63286C9.22149 9.66411 9.14076 9.68019 9.05923 9.68019C8.9777 9.68019 8.89697 9.66411 8.82166 9.63286C8.74635 9.60161 8.67795 9.55581 8.62037 9.49809L1.18211 2.05982C1.12438 2.00224 1.07858 1.93384 1.04733 1.85853C1.01609 1.78323 1 1.7025 1 1.62096C1 1.53943 1.01609 1.4587 1.04733 1.38339C1.07858 1.30809 1.12438 1.23968 1.18211 1.18211Z" fill="#0D1846" stroke="#0D1846"/>
</svg>
