<svg width="31" height="23" viewBox="0 0 31 23" fill="none" xmlns="http://www.w3.org/2000/svg">
<path fill-rule="evenodd" clip-rule="evenodd" d="M22.0508 12.8477C23.9785 14.1563 25.3293 15.9292 25.3293 18.2932V22.5145H29.5506C30.3245 22.5145 30.9577 21.8813 30.9577 21.1074V18.2932C30.9577 15.2257 25.9344 13.4105 22.0508 12.8477Z" fill="#0D1846"/>
<path d="M11.2573 11.2569C14.3658 11.2569 16.8857 8.73698 16.8857 5.62847C16.8857 2.51995 14.3658 0 11.2573 0C8.14883 0 5.62891 2.51995 5.62891 5.62847C5.62891 8.73698 8.14883 11.2569 11.2573 11.2569Z" fill="#0D1846"/>
<path fill-rule="evenodd" clip-rule="evenodd" d="M19.6996 11.2569C22.8093 11.2569 25.328 8.73819 25.328 5.62847C25.328 2.51874 22.8093 0 19.6996 0C19.0382 0 18.4191 0.140711 17.8281 0.337708C18.996 1.78704 19.6996 3.63036 19.6996 5.62847C19.6996 7.62657 18.996 9.46989 17.8281 10.9192C18.4191 11.1162 19.0382 11.2569 19.6996 11.2569Z" fill="#0D1846"/>
<path fill-rule="evenodd" clip-rule="evenodd" d="M11.2568 12.6641C7.49986 12.6641 0 14.5496 0 18.2925V21.1068C0 21.8807 0.633196 22.5139 1.4071 22.5139H21.1066C21.8805 22.5139 22.5137 21.8807 22.5137 21.1068V18.2925C22.5137 14.5496 15.0138 12.6641 11.2568 12.6641Z" fill="#0D1846"/>
</svg>
