<svg width="36" height="36" viewBox="0 0 36 36" fill="none" xmlns="http://www.w3.org/2000/svg">
<mask id="path-1-inside-1_398_2232" fill="white">
<path d="M20.5981 32.6545L21.4113 31.2808L19.4749 30.1347L18.6618 31.5085L20.5981 32.6545ZM14.5887 31.2808L15.4018 32.6545L17.338 31.5085L16.5249 30.1347L14.5887 31.2808ZM18.6618 31.5085C18.3727 31.9969 17.6272 31.9969 17.338 31.5085L15.4018 32.6545C16.5622 34.615 19.4377 34.615 20.5981 32.6545L18.6618 31.5085ZM15.75 4.125H20.25V1.875H15.75V4.125ZM31.875 15.75V17.25H34.125V15.75H31.875ZM4.125 17.25V15.75H1.875V17.25H4.125ZM1.875 17.25C1.875 18.9819 1.87439 20.3371 1.94897 21.4302C2.02425 22.5334 2.17985 23.4516 2.53154 24.3006L4.61027 23.4396C4.39106 22.9104 4.26122 22.2657 4.19376 21.277C4.12562 20.2783 4.125 19.0126 4.125 17.25H1.875ZM11.7037 27.3624C9.82059 27.3298 8.83384 27.2101 8.06038 26.8897L7.19936 28.9684C8.40681 29.4685 9.78207 29.5795 11.665 29.6119L11.7037 27.3624ZM2.53154 24.3006C3.40692 26.4139 5.08599 28.093 7.19936 28.9684L8.06038 26.8897C6.49833 26.2426 5.25729 25.0017 4.61027 23.4396L2.53154 24.3006ZM31.875 17.25C31.875 19.0126 31.8744 20.2783 31.8063 21.277C31.7388 22.2657 31.6089 22.9104 31.3897 23.4396L33.4684 24.3006C33.8202 23.4516 33.9757 22.5334 34.051 21.4302C34.1256 20.3371 34.125 18.9819 34.125 17.25H31.875ZM24.3349 29.6119C26.2179 29.5795 27.5932 29.4685 28.8006 28.9684L27.9396 26.8897C27.1662 27.2101 26.1793 27.3298 24.2962 27.3624L24.3349 29.6119ZM31.3897 23.4396C30.7426 25.0017 29.5017 26.2426 27.9396 26.8897L28.8006 28.9684C30.9139 28.093 32.593 26.4139 33.4684 24.3006L31.3897 23.4396ZM20.25 4.125C22.7268 4.125 24.5055 4.12619 25.8928 4.2581C27.2635 4.38842 28.1356 4.63835 28.8309 5.06442L30.0066 3.14598C28.8982 2.46686 27.6411 2.16419 26.1058 2.01821C24.5872 1.87382 22.6833 1.875 20.25 1.875V4.125ZM34.125 15.75C34.125 13.3167 34.1262 11.4127 33.9817 9.89416C33.8358 8.35884 33.5331 7.10168 32.854 5.99345L30.9355 7.16907C31.3617 7.86436 31.6116 8.73651 31.7419 10.1071C31.8738 11.4945 31.875 13.2731 31.875 15.75H34.125ZM28.8309 5.06442C29.6887 5.59008 30.4099 6.31128 30.9355 7.16907L32.854 5.99345C32.1429 4.83291 31.1671 3.85716 30.0066 3.14598L28.8309 5.06442ZM15.75 1.875C13.3167 1.875 11.4127 1.87382 9.89416 2.01821C8.35884 2.16419 7.10168 2.46686 5.99345 3.14598L7.16907 5.06442C7.86436 4.63835 8.73651 4.38842 10.1071 4.2581C11.4945 4.12619 13.2731 4.125 15.75 4.125V1.875ZM4.125 15.75C4.125 13.2731 4.12619 11.4945 4.2581 10.1071C4.38842 8.73651 4.63835 7.86436 5.06442 7.16907L3.14598 5.99345C2.46686 7.10168 2.16419 8.35884 2.01821 9.89416C1.87382 11.4127 1.875 13.3167 1.875 15.75H4.125ZM5.99345 3.14598C4.83291 3.85716 3.85716 4.83291 3.14598 5.99345L5.06442 7.16907C5.59008 6.31128 6.31128 5.59008 7.16907 5.06442L5.99345 3.14598ZM16.5249 30.1347C16.2204 29.6202 15.9531 29.1661 15.6931 28.8094C15.4192 28.4338 15.1053 28.0956 14.6698 27.8422L13.5386 29.7873C13.6097 29.8285 13.7066 29.904 13.8748 30.1347C14.0568 30.3846 14.2625 30.7297 14.5887 31.2808L16.5249 30.1347ZM11.665 29.6119C12.3236 29.6233 12.7408 29.6317 13.0588 29.6668C13.356 29.6998 13.4712 29.748 13.5386 29.7873L14.6698 27.8422C14.2306 27.5868 13.7737 27.4822 13.3065 27.4305C12.8601 27.3811 12.3206 27.373 11.7037 27.3624L11.665 29.6119ZM21.4113 31.2808C21.7374 30.7297 21.943 30.3846 22.1251 30.1347C22.2933 29.904 22.3902 29.8285 22.4613 29.7873L21.3301 27.8422C20.8947 28.0956 20.5806 28.4338 20.3068 28.8094C20.0469 29.1661 19.7796 29.6202 19.4749 30.1347L21.4113 31.2808ZM24.2962 27.3624C23.6793 27.373 23.1399 27.3811 22.6935 27.4305C22.2262 27.4822 21.7693 27.5868 21.3301 27.8422L22.4613 29.7873C22.5288 29.748 22.644 29.6998 22.9411 29.6668C23.2591 29.6317 23.6763 29.6233 24.3349 29.6119L24.2962 27.3624Z"/>
</mask>
<path d="M20.5981 32.6545L21.4113 31.2808L19.4749 30.1347L18.6618 31.5085L20.5981 32.6545ZM14.5887 31.2808L15.4018 32.6545L17.338 31.5085L16.5249 30.1347L14.5887 31.2808ZM18.6618 31.5085C18.3727 31.9969 17.6272 31.9969 17.338 31.5085L15.4018 32.6545C16.5622 34.615 19.4377 34.615 20.5981 32.6545L18.6618 31.5085ZM15.75 4.125H20.25V1.875H15.75V4.125ZM31.875 15.75V17.25H34.125V15.75H31.875ZM4.125 17.25V15.75H1.875V17.25H4.125ZM1.875 17.25C1.875 18.9819 1.87439 20.3371 1.94897 21.4302C2.02425 22.5334 2.17985 23.4516 2.53154 24.3006L4.61027 23.4396C4.39106 22.9104 4.26122 22.2657 4.19376 21.277C4.12562 20.2783 4.125 19.0126 4.125 17.25H1.875ZM11.7037 27.3624C9.82059 27.3298 8.83384 27.2101 8.06038 26.8897L7.19936 28.9684C8.40681 29.4685 9.78207 29.5795 11.665 29.6119L11.7037 27.3624ZM2.53154 24.3006C3.40692 26.4139 5.08599 28.093 7.19936 28.9684L8.06038 26.8897C6.49833 26.2426 5.25729 25.0017 4.61027 23.4396L2.53154 24.3006ZM31.875 17.25C31.875 19.0126 31.8744 20.2783 31.8063 21.277C31.7388 22.2657 31.6089 22.9104 31.3897 23.4396L33.4684 24.3006C33.8202 23.4516 33.9757 22.5334 34.051 21.4302C34.1256 20.3371 34.125 18.9819 34.125 17.25H31.875ZM24.3349 29.6119C26.2179 29.5795 27.5932 29.4685 28.8006 28.9684L27.9396 26.8897C27.1662 27.2101 26.1793 27.3298 24.2962 27.3624L24.3349 29.6119ZM31.3897 23.4396C30.7426 25.0017 29.5017 26.2426 27.9396 26.8897L28.8006 28.9684C30.9139 28.093 32.593 26.4139 33.4684 24.3006L31.3897 23.4396ZM20.25 4.125C22.7268 4.125 24.5055 4.12619 25.8928 4.2581C27.2635 4.38842 28.1356 4.63835 28.8309 5.06442L30.0066 3.14598C28.8982 2.46686 27.6411 2.16419 26.1058 2.01821C24.5872 1.87382 22.6833 1.875 20.25 1.875V4.125ZM34.125 15.75C34.125 13.3167 34.1262 11.4127 33.9817 9.89416C33.8358 8.35884 33.5331 7.10168 32.854 5.99345L30.9355 7.16907C31.3617 7.86436 31.6116 8.73651 31.7419 10.1071C31.8738 11.4945 31.875 13.2731 31.875 15.75H34.125ZM28.8309 5.06442C29.6887 5.59008 30.4099 6.31128 30.9355 7.16907L32.854 5.99345C32.1429 4.83291 31.1671 3.85716 30.0066 3.14598L28.8309 5.06442ZM15.75 1.875C13.3167 1.875 11.4127 1.87382 9.89416 2.01821C8.35884 2.16419 7.10168 2.46686 5.99345 3.14598L7.16907 5.06442C7.86436 4.63835 8.73651 4.38842 10.1071 4.2581C11.4945 4.12619 13.2731 4.125 15.75 4.125V1.875ZM4.125 15.75C4.125 13.2731 4.12619 11.4945 4.2581 10.1071C4.38842 8.73651 4.63835 7.86436 5.06442 7.16907L3.14598 5.99345C2.46686 7.10168 2.16419 8.35884 2.01821 9.89416C1.87382 11.4127 1.875 13.3167 1.875 15.75H4.125ZM5.99345 3.14598C4.83291 3.85716 3.85716 4.83291 3.14598 5.99345L5.06442 7.16907C5.59008 6.31128 6.31128 5.59008 7.16907 5.06442L5.99345 3.14598ZM16.5249 30.1347C16.2204 29.6202 15.9531 29.1661 15.6931 28.8094C15.4192 28.4338 15.1053 28.0956 14.6698 27.8422L13.5386 29.7873C13.6097 29.8285 13.7066 29.904 13.8748 30.1347C14.0568 30.3846 14.2625 30.7297 14.5887 31.2808L16.5249 30.1347ZM11.665 29.6119C12.3236 29.6233 12.7408 29.6317 13.0588 29.6668C13.356 29.6998 13.4712 29.748 13.5386 29.7873L14.6698 27.8422C14.2306 27.5868 13.7737 27.4822 13.3065 27.4305C12.8601 27.3811 12.3206 27.373 11.7037 27.3624L11.665 29.6119ZM21.4113 31.2808C21.7374 30.7297 21.943 30.3846 22.1251 30.1347C22.2933 29.904 22.3902 29.8285 22.4613 29.7873L21.3301 27.8422C20.8947 28.0956 20.5806 28.4338 20.3068 28.8094C20.0469 29.1661 19.7796 29.6202 19.4749 30.1347L21.4113 31.2808ZM24.2962 27.3624C23.6793 27.373 23.1399 27.3811 22.6935 27.4305C22.2262 27.4822 21.7693 27.5868 21.3301 27.8422L22.4613 29.7873C22.5288 29.748 22.644 29.6998 22.9411 29.6668C23.2591 29.6317 23.6763 29.6233 24.3349 29.6119L24.2962 27.3624Z" fill="#E95623"/>
<path d="M20.5981 32.6545L12.1095 46.9975L29.0873 18.3119L20.5981 32.6545ZM19.4749 30.1347L27.9631 15.7915L10.9855 44.4772L19.4749 30.1347ZM14.5887 31.2808L6.09796 16.9391L23.0786 45.6231L14.5887 31.2808ZM14.6698 27.8422L29.0771 36.2213L0.262792 19.4627L14.6698 27.8422ZM19.63 32.0815L11.1409 46.4242L12.109 46.9972L20.5981 32.6545L29.0873 18.3119L28.1192 17.7389L19.63 32.0815ZM20.4432 30.7077L28.9314 16.3645L27.9631 15.7915L19.4749 30.1347L10.9868 44.4779L11.955 45.0509L20.4432 30.7077ZM15.5568 30.7077L7.06608 16.366L6.09796 16.9391L14.5887 31.2808L23.0794 45.6226L24.0475 45.0494L15.5568 30.7077ZM16.3699 32.0815L24.8591 46.4242L25.8272 45.8512L17.338 31.5085L8.8489 17.1659L7.8808 17.7389L16.3699 32.0815ZM3.5709 23.8701L9.94871 39.2682L10.9881 38.8377L4.61027 23.4396L-1.76755 8.0415L-2.80691 8.472L3.5709 23.8701ZM11.6844 28.4872L-4.97982 28.2001L-4.9992 29.3248L11.665 29.6119L28.3292 29.8991L28.3486 28.7744L11.6844 28.4872ZM7.62987 27.9291L-7.76811 21.551L-8.19863 22.5904L7.19936 28.9684L22.5973 35.3465L23.0279 34.3072L7.62987 27.9291ZM32.4291 23.8701L26.0512 39.2682L27.0906 39.6987L33.4684 24.3006L39.8463 8.90254L38.807 8.47204L32.4291 23.8701ZM24.3156 28.4872L40.9798 28.2006L40.9604 27.0757L24.2962 27.3624L7.63205 27.649L7.6514 28.7739L24.3156 28.4872ZM28.3701 27.9291L12.972 34.307L13.4025 35.3463L28.8006 28.9684L44.1987 22.5906L43.7682 21.5512L28.3701 27.9291ZM29.4187 4.1052L15.2083 -4.60352L14.6205 -3.6443L28.8309 5.06442L43.0413 13.7731L43.6292 12.8139L29.4187 4.1052ZM31.8948 6.58126L40.603 20.792L41.5623 20.2042L32.854 5.99345L24.1458 -8.21728L23.1866 -7.62946L31.8948 6.58126ZM6.58126 4.1052L20.7919 -4.60321L20.2041 -5.56243L5.99345 3.14598L-8.21716 11.8544L-7.62934 12.8136L6.58126 4.1052ZM4.1052 6.58126L12.8136 -7.62934L11.8544 -8.21716L3.14598 5.99345L-5.56243 20.2041L-4.60321 20.7919L4.1052 6.58126ZM14.1042 28.8147L28.5112 37.1942L29.0768 36.2218L14.6698 27.8422L0.262792 19.4627L-0.302812 20.4352L14.1042 28.8147ZM21.4113 31.2808L29.9008 16.9384L27.9644 15.7922L19.4749 30.1347L10.9855 44.4772L12.9218 45.6233L21.4113 31.2808ZM18.6618 31.5085L10.1731 45.8515L12.1095 46.9975L20.5981 32.6545L29.0868 18.3116L27.1505 17.1656L18.6618 31.5085ZM15.4018 32.6545L23.891 46.9972L25.8272 45.8512L17.338 31.5085L8.84889 17.1659L6.91269 18.3119L15.4018 32.6545ZM16.5249 30.1347L8.03496 15.7925L6.09875 16.9386L14.5887 31.2808L23.0786 45.6231L25.0148 44.4769L16.5249 30.1347ZM20.25 4.125H36.9167V1.875H20.25H3.58333V4.125H20.25ZM15.75 1.875H-0.916667V4.125H15.75H32.4167V1.875H15.75ZM31.875 17.25V33.9167H34.125V17.25V0.583333H31.875V17.25ZM34.125 15.75V-0.916667H31.875V15.75V32.4167H34.125V15.75ZM4.125 15.75V-0.916667H1.875V15.75V32.4167H4.125V15.75ZM1.875 17.25V33.9167H4.125V17.25V0.583333H1.875V17.25ZM2.53154 24.3006L8.90935 39.6987L10.9881 38.8377L4.61027 23.4396L-1.76755 8.0415L-3.84627 8.9025L2.53154 24.3006ZM8.06038 26.8897L-7.3376 20.5117L-8.19863 22.5904L7.19936 28.9684L22.5973 35.3465L23.4584 33.2678L8.06038 26.8897ZM11.665 29.6119L28.3292 29.8991L28.3679 27.6495L11.7037 27.3624L-4.96044 27.0753L-4.9992 29.3248L11.665 29.6119ZM31.3897 23.4396L25.0119 38.8377L27.0906 39.6987L33.4684 24.3006L39.8463 8.90254L37.7676 8.04154L31.3897 23.4396ZM28.8006 28.9684L44.1987 22.5906L43.3377 20.5119L27.9396 26.8897L12.5415 33.2676L13.4025 35.3463L28.8006 28.9684ZM24.2962 27.3624L7.63205 27.6491L7.67075 29.8986L24.3349 29.6119L40.9991 29.3253L40.9604 27.0757L24.2962 27.3624ZM28.8309 5.06442L43.0413 13.7732L44.217 11.8547L30.0066 3.14598L15.7962 -5.56275L14.6205 -3.64431L28.8309 5.06442ZM32.854 5.99345L24.1459 -8.21734L22.2274 -7.04171L30.9355 7.16907L39.6437 21.3799L41.5622 20.2042L32.854 5.99345ZM5.99345 3.14598L-8.21721 11.8543L-7.04159 13.7727L7.16907 5.06442L21.3797 -3.64391L20.2041 -5.56235L5.99345 3.14598ZM5.06442 7.16907L13.7727 -7.04159L11.8543 -8.21721L3.14598 5.99345L-5.56235 20.2041L-3.64391 21.3797L5.06442 7.16907ZM14.6698 27.8422L0.262518 19.4632L-0.868692 21.4083L13.5386 29.7873L27.9458 38.1663L29.0771 36.2213L14.6698 27.8422ZM22.4613 29.7873L36.8688 21.4086L35.7376 19.4635L21.3301 27.8422L6.92269 36.221L8.05383 38.166L22.4613 29.7873ZM20.5981 32.6545L-8.0864 15.6749L-8.08707 15.6761L20.5981 32.6545ZM19.4749 30.1347L-9.20727 13.1511L-9.21043 13.1565L19.4749 30.1347ZM14.5887 31.2808L-14.0972 48.2582L-14.0957 48.2607L14.5887 31.2808ZM17.338 31.5085L-11.3473 48.4868L-11.3441 48.4923L17.338 31.5085ZM4.61027 23.4396L35.4064 10.6838L35.4061 10.6831L4.61027 23.4396ZM11.665 29.6119L12.2419 -3.71639L12.2385 -3.71645L11.665 29.6119ZM7.19936 28.9684L-5.55695 59.7644L-5.5558 59.7648L7.19936 28.9684ZM33.4684 24.3006L2.67352 11.5419L2.67258 11.5442L33.4684 24.3006ZM24.2962 27.3624L24.8716 60.6908L24.8723 60.6908L24.2962 27.3624ZM28.8006 28.9684L41.5567 59.7644L41.557 59.7643L28.8006 28.9684ZM28.8309 5.06442L11.4135 33.4853L11.415 33.4862L28.8309 5.06442ZM32.854 5.99345L61.2762 -11.4218L61.2757 -11.4227L32.854 5.99345ZM5.99345 3.14598L-11.4232 -25.2753L-11.4232 -25.2753L5.99345 3.14598ZM3.14598 5.99345L-25.2753 -11.4232L-25.2753 -11.4232L3.14598 5.99345ZM14.6698 27.8422L31.431 -0.970444L31.4305 -0.970777L14.6698 27.8422ZM21.4113 31.2808L50.0958 48.2605L50.0986 48.2559L21.4113 31.2808ZM18.6618 31.5085L-10.0236 14.5303L-10.0242 14.5313L18.6618 31.5085ZM15.4018 32.6545L44.0871 15.6761L44.0863 15.6747L15.4018 32.6545ZM16.5249 30.1347L-12.161 47.1121L-12.1605 47.1129L16.5249 30.1347ZM1.94897 21.4302L-31.307 23.6993L-31.307 23.6996L1.94897 21.4302ZM2.53154 24.3006L33.3275 11.5444L33.3272 11.5438L2.53154 24.3006ZM4.19376 21.277L37.4498 19.008L37.4498 19.0079L4.19376 21.277ZM11.7037 27.3624L11.1277 60.6908L11.1284 60.6908L11.7037 27.3624ZM8.06038 26.8897L-4.697 57.6852L-4.69649 57.6854L8.06038 26.8897ZM31.8063 21.277L65.0622 23.5476L65.0624 23.5447L31.8063 21.277ZM31.3897 23.4396L62.1853 36.1967L62.1868 36.1931L31.3897 23.4396ZM34.051 21.4302L67.307 23.7L67.3071 23.6984L34.051 21.4302ZM24.3349 29.6119L23.7615 -3.71645L23.7581 -3.71639L24.3349 29.6119ZM27.9396 26.8897L15.1825 -3.90584L15.1819 -3.90557L27.9396 26.8897ZM25.8928 4.2581L22.7377 37.4418L22.7379 37.4418L25.8928 4.2581ZM30.0066 3.14598L47.4231 -25.2754L47.4219 -25.2762L30.0066 3.14598ZM26.1058 2.01821L29.2611 -31.1655L29.261 -31.1655L26.1058 2.01821ZM33.9817 9.89416L0.798012 13.0487L0.7982 13.0506L33.9817 9.89416ZM30.9355 7.16907L2.51341 24.5844L2.51553 24.5878L30.9355 7.16907ZM31.7419 10.1071L64.9258 6.95347L64.9256 6.95129L31.7419 10.1071ZM9.89416 2.01821L13.0493 35.2019L13.0493 35.2019L9.89416 2.01821ZM7.16907 5.06442L-10.2475 -23.357L-10.2477 -23.3568L7.16907 5.06442ZM10.1071 4.2581L6.95205 -28.9256L6.95201 -28.9256L10.1071 4.2581ZM4.2581 10.1071L-28.9256 6.95201L-28.9256 6.95205L4.2581 10.1071ZM5.06442 7.16907L-23.3568 -10.2477L-23.357 -10.2475L5.06442 7.16907ZM2.01821 9.89416L35.2019 13.0493L35.2019 13.0493L2.01821 9.89416ZM15.6931 28.8094L42.6319 9.17747L42.6259 9.16921L15.6931 28.8094ZM13.5386 29.7873L-3.24995 58.5841L-3.21817 58.6026L-3.18636 58.6211L13.5386 29.7873ZM13.8748 30.1347L40.8168 10.5072L40.8097 10.4974L13.8748 30.1347ZM13.0588 29.6668L16.7379 -3.46283L16.7268 -3.46406L16.7157 -3.46529L13.0588 29.6668ZM13.3065 27.4305L16.9759 -5.70024L16.9694 -5.70096L13.3065 27.4305ZM22.1251 30.1347L-4.81226 10.5009L-4.81453 10.504L22.1251 30.1347ZM22.4613 29.7873L39.1889 58.6196L39.211 58.6067L39.2331 58.5938L22.4613 29.7873ZM21.3301 27.8422L4.57117 -0.971772L4.56717 -0.96944L21.3301 27.8422ZM20.3068 28.8094L-6.631 9.17623L-6.6319 9.17747L20.3068 28.8094ZM22.6935 27.4305L19.0308 -5.70099L19.0241 -5.70025L22.6935 27.4305ZM22.9411 29.6668L19.2841 -3.46527L19.273 -3.46404L19.2619 -3.46281L22.9411 29.6668ZM20.5981 32.6545L49.2827 49.6342L50.0958 48.2605L21.4113 31.2808L-7.27325 14.3012L-8.0864 15.6749L20.5981 32.6545ZM19.4749 30.1347L-9.21043 13.1565L-10.0236 14.5303L18.6618 31.5085L47.3472 48.4868L48.1603 47.1129L19.4749 30.1347ZM14.5887 31.2808L-14.0957 48.2607L-13.2826 49.6344L15.4018 32.6545L44.0863 15.6747L43.2731 14.301L14.5887 31.2808ZM17.338 31.5085L46.0234 14.5303L45.2103 13.1565L16.5249 30.1347L-12.1605 47.1129L-11.3473 48.4868L17.338 31.5085ZM18.6618 31.5085L-10.0242 14.5313C2.59685 -6.79408 33.4044 -6.78059 46.0202 14.5248L17.338 31.5085L-11.3441 48.4923C1.85006 70.7745 34.1486 70.788 47.3478 48.4858L18.6618 31.5085ZM15.4018 32.6545L-13.2834 49.633C0.784047 73.4 35.216 73.4 49.2834 49.633L20.5981 32.6545L-8.08707 15.6761C3.65955 -4.1699 32.3405 -4.1699 44.0871 15.6761L15.4018 32.6545ZM15.75 4.125V37.4583H20.25V4.125V-29.2083H15.75V4.125ZM20.25 1.875V-31.4583H15.75V1.875V35.2083H20.25V1.875ZM31.875 15.75H-1.45833V17.25H31.875H65.2083V15.75H31.875ZM34.125 17.25H67.4583V15.75H34.125H0.791665V17.25H34.125ZM4.125 17.25H37.4583V15.75H4.125H-29.2083V17.25H4.125ZM1.875 15.75H-31.4583V17.25H1.875H35.2083V15.75H1.875ZM1.875 17.25H-31.4583C-31.4583 18.5308 -31.4769 21.2096 -31.307 23.6993L1.94897 21.4302L35.205 19.1611C35.2273 19.4878 35.22 19.561 35.2144 19.138C35.2088 18.7131 35.2083 18.1838 35.2083 17.25H1.875ZM1.94897 21.4302L-31.307 23.6996C-31.1157 26.5039 -30.5779 31.4719 -28.2642 37.0574L2.53154 24.3006L33.3272 11.5438C34.9376 15.4313 35.1642 18.563 35.205 19.1608L1.94897 21.4302ZM4.61027 23.4396L35.4061 10.6831C37.1516 14.8969 37.4019 18.3068 37.4498 19.008L4.19376 21.277L-29.0623 23.5461C-28.8795 26.2246 -28.3695 30.9239 -26.1856 36.1961L4.61027 23.4396ZM4.19376 21.277L37.4498 19.0079C37.4758 19.3894 37.4695 19.514 37.4643 19.1131C37.4591 18.7135 37.4583 18.1908 37.4583 17.25H4.125H-29.2083C-29.2083 18.5512 -29.2259 21.1484 -29.0622 23.5462L4.19376 21.277ZM11.7037 27.3624L12.2798 -5.96596C11.7445 -5.97521 12.4587 -5.98812 13.6959 -5.82983C15.161 -5.6424 17.7568 -5.17368 20.8173 -3.90592L8.06038 26.8897L-4.69649 57.6854C2.52417 60.6765 9.29459 60.6591 11.1277 60.6908L11.7037 27.3624ZM7.19936 28.9684L-5.5558 59.7648C2.06743 62.9222 9.17665 62.9074 11.0915 62.9403L11.665 29.6119L12.2385 -3.71645C11.6213 -3.72707 12.2963 -3.74201 13.4493 -3.59307C14.7864 -3.42035 17.1514 -2.98891 19.9545 -1.82793L7.19936 28.9684ZM2.53154 24.3006L-28.2644 37.0568C-24.006 47.3375 -15.8379 55.5058 -5.55695 59.7644L7.19936 28.9684L19.9557 -1.82746C26.0099 0.680343 30.8198 5.49039 33.3275 11.5444L2.53154 24.3006ZM8.06038 26.8897L20.8178 -3.90571C27.4214 -1.17006 32.6699 4.07717 35.4064 10.6838L4.61027 23.4396L-26.1858 36.1954C-22.1553 45.9262 -14.4248 53.6554 -4.697 57.6852L8.06038 26.8897ZM31.875 17.25H-1.45833C-1.45833 18.1909 -1.45905 18.7138 -1.46429 19.1136C-1.46954 19.5147 -1.4758 19.3905 -1.44981 19.0094L31.8063 21.277L65.0624 23.5447C65.2259 21.1477 65.2083 18.5511 65.2083 17.25H31.875ZM31.8063 21.277L-1.44961 19.0065C-1.40162 18.3035 -1.15092 14.8965 0.592699 10.6861L31.3897 23.4396L62.1868 36.1931C64.3687 30.9243 64.8792 26.2279 65.0622 23.5476L31.8063 21.277ZM33.4684 24.3006L64.2634 37.0593C66.5782 31.4721 67.1157 26.5027 67.307 23.7L34.051 21.4302L0.795087 19.1604C0.83578 18.5642 1.0622 15.4311 2.67352 11.5419L33.4684 24.3006ZM34.051 21.4302L67.3071 23.6984C67.4769 21.2094 67.4583 18.5313 67.4583 17.25H34.125H0.791665C0.791665 18.1837 0.791204 18.7131 0.785573 19.138C0.779968 19.561 0.772727 19.4882 0.794976 19.162L34.051 21.4302ZM24.3349 29.6119L24.9084 62.9403C26.8226 62.9074 33.9328 62.9223 41.5567 59.7644L28.8006 28.9684L16.0445 -1.82754C18.8483 -2.98892 21.2138 -3.42038 22.5508 -3.59308C23.7038 -3.74201 24.3787 -3.72707 23.7615 -3.71645L24.3349 29.6119ZM27.9396 26.8897L15.1819 -3.90557C18.2431 -5.17374 20.8394 -5.64246 22.3041 -5.82984C23.5413 -5.98811 24.2555 -5.97521 23.7202 -5.96596L24.2962 27.3624L24.8723 60.6908C26.7047 60.6591 33.4761 60.6767 40.6973 57.6851L27.9396 26.8897ZM31.3897 23.4396L0.594162 10.6825C3.33017 4.07779 8.57779 -1.16983 15.1825 -3.90584L27.9396 26.8897L40.6967 57.6853C50.4256 53.6551 58.1551 45.9256 62.1853 36.1967L31.3897 23.4396ZM28.8006 28.9684L41.557 59.7643C51.8377 55.5058 60.0058 47.3377 64.2643 37.057L33.4684 24.3006L2.67258 11.5442C5.1803 5.49018 9.99018 0.680302 16.0442 -1.82742L28.8006 28.9684ZM20.25 4.125V37.4583C21.5709 37.4583 22.311 37.4597 22.877 37.47C23.1259 37.4745 23.2255 37.479 23.2229 37.4789C23.2207 37.4788 23.0422 37.4707 22.7377 37.4418L25.8928 4.2581L29.048 -28.9256C25.7149 -29.2425 22.0737 -29.2083 20.25 -29.2083V4.125ZM25.8928 4.2581L22.7379 37.4418C21.6721 37.3405 16.8382 36.8098 11.4135 33.4853L28.8309 5.06442L46.2483 -23.3565C39.4331 -27.5331 32.855 -28.5636 29.0478 -28.9256L25.8928 4.2581ZM30.0066 3.14598L47.4219 -25.2762C40.1982 -29.7024 33.2394 -30.7872 29.2611 -31.1655L26.1058 2.01821L22.9506 35.2019C22.0428 35.1156 17.5983 34.6361 12.5913 31.5681L30.0066 3.14598ZM26.1058 2.01821L29.261 -31.1655C25.8002 -31.4945 22.0452 -31.4583 20.25 -31.4583V1.875V35.2083C21.5608 35.2083 22.3099 35.2092 22.911 35.2202C23.513 35.2312 23.4103 35.2456 22.9507 35.2019L26.1058 2.01821ZM34.125 15.75H67.4583C67.4583 13.9554 67.4946 10.1993 67.1653 6.7377L33.9817 9.89416L0.7982 13.0506C0.754424 12.5904 0.768773 12.4872 0.779792 13.0892C0.790793 13.6901 0.791665 14.4391 0.791665 15.75H34.125ZM33.9817 9.89416L67.1655 6.73968C66.7872 2.76086 65.7024 -4.19811 61.2762 -11.4218L32.854 5.99345L4.43186 23.4087C1.36377 18.4015 0.884343 13.9568 0.798012 13.0487L33.9817 9.89416ZM30.9355 7.16907L2.51553 24.5878C-0.809865 19.1622 -1.34042 14.3274 -1.44166 13.263L31.7419 10.1071L64.9256 6.95129C64.5636 3.14557 63.5333 -3.43349 59.3556 -10.2497L30.9355 7.16907ZM31.7419 10.1071L-1.44186 13.2608C-1.47076 12.9567 -1.47879 12.7785 -1.47888 12.7765C-1.47899 12.7741 -1.47447 12.8738 -1.46996 13.1229C-1.45972 13.6889 -1.45833 14.4292 -1.45833 15.75H31.875H65.2083C65.2083 13.9256 65.2424 10.2856 64.9258 6.95347L31.7419 10.1071ZM28.8309 5.06442L11.415 33.4862C7.7873 31.2633 4.73678 28.213 2.51341 24.5844L30.9355 7.16907L59.3577 -10.2462C56.0831 -15.5904 51.5902 -20.0831 46.2468 -23.3574L28.8309 5.06442ZM32.854 5.99345L61.2757 -11.4227C57.8158 -17.0688 53.0689 -21.8157 47.4231 -25.2754L30.0066 3.14598L12.5901 31.5674C9.26543 29.53 6.46995 26.7347 4.43242 23.4096L32.854 5.99345ZM15.75 1.875V-31.4583C13.9549 -31.4583 10.1998 -31.4945 6.739 -31.1655L9.89416 2.01821L13.0493 35.2019C12.5897 35.2456 12.487 35.2312 13.089 35.2202C13.6901 35.2092 14.4392 35.2083 15.75 35.2083V1.875ZM9.89416 2.01821L6.73903 -31.1655C2.76129 -30.7873 -4.19862 -29.7026 -11.4232 -25.2753L5.99345 3.14598L23.4101 31.5673C18.402 34.6363 13.9564 35.1156 13.0493 35.2019L9.89416 2.01821ZM7.16907 5.06442L24.5856 33.4858C19.1614 36.8097 14.3282 37.3404 13.2623 37.4418L10.1071 4.2581L6.95201 -28.9256C3.14483 -28.5636 -3.4327 -27.533 -10.2475 -23.357L7.16907 5.06442ZM10.1071 4.2581L13.2622 37.4418C12.9578 37.4707 12.7793 37.4788 12.7771 37.4789C12.7745 37.479 12.8741 37.4745 13.123 37.47C13.689 37.4597 14.429 37.4583 15.75 37.4583V4.125V-29.2083C13.9262 -29.2083 10.2851 -29.2425 6.95205 -28.9256L10.1071 4.2581ZM4.125 15.75H37.4583C37.4583 14.429 37.4597 13.689 37.47 13.123C37.4745 12.8741 37.479 12.7745 37.4789 12.7771C37.4788 12.7793 37.4707 12.9578 37.4418 13.2622L4.2581 10.1071L-28.9256 6.95205C-29.2425 10.2851 -29.2083 13.9262 -29.2083 15.75H4.125ZM4.2581 10.1071L37.4418 13.2623C37.3404 14.3282 36.8097 19.1614 33.4858 24.5856L5.06442 7.16907L-23.357 -10.2475C-27.533 -3.4327 -28.5636 3.14483 -28.9256 6.95201L4.2581 10.1071ZM3.14598 5.99345L-25.2753 -11.4232C-29.7026 -4.19862 -30.7873 2.76129 -31.1655 6.73903L2.01821 9.89416L35.2019 13.0493C35.1156 13.9564 34.6363 18.402 31.5673 23.4101L3.14598 5.99345ZM2.01821 9.89416L-31.1655 6.739C-31.4945 10.1998 -31.4583 13.9549 -31.4583 15.75H1.875H35.2083C35.2083 14.4392 35.2092 13.6901 35.2202 13.089C35.2312 12.487 35.2456 12.5897 35.2019 13.0493L2.01821 9.89416ZM5.99345 3.14598L-11.4232 -25.2753C-17.0689 -21.8156 -21.8156 -17.0689 -25.2753 -11.4232L3.14598 5.99345L31.5673 23.4101C29.53 26.7347 26.7347 29.53 23.4101 31.5673L5.99345 3.14598ZM5.06442 7.16907L33.4857 24.5858C31.2628 28.2131 28.2131 31.2628 24.5858 33.4857L7.16907 5.06442L-10.2477 -23.3568C-15.5906 -20.0827 -20.0827 -15.5906 -23.3568 -10.2477L5.06442 7.16907ZM16.5249 30.1347L45.2108 13.1573C45.1158 12.9968 44.7918 12.4461 44.4517 11.8956C44.1059 11.3357 43.4722 10.3305 42.6319 9.17747L15.6931 28.8094L-11.2456 48.4414C-11.5546 48.0175 -11.7914 47.667 -11.9473 47.4303C-12.1041 47.1923 -12.2151 47.0143 -12.2671 46.9301C-12.3189 46.8462 -12.3423 46.8066 -12.3171 46.8487C-12.2865 46.9 -12.2531 46.9564 -12.161 47.1121L16.5249 30.1347ZM15.6931 28.8094L42.6259 9.16921C40.7904 6.65227 37.2611 2.42108 31.431 -0.970444L14.6698 27.8422L-2.09147 56.6549C-7.0505 53.7701 -9.95195 50.2154 -11.2396 48.4497L15.6931 28.8094ZM13.5386 29.7873L-3.18636 58.6211C-5.52403 57.2651 -7.6882 55.623 -9.61651 53.7403C-11.2864 52.1098 -12.427 50.6403 -13.0601 49.772L13.8748 30.1347L40.8097 10.4974C39.0924 8.14203 35.7686 4.14674 30.2635 0.953507L13.5386 29.7873ZM13.8748 30.1347L-13.0672 49.7622C-13.4078 49.2948 -13.6708 48.9046 -13.8453 48.6389C-14.0185 48.3752 -14.1412 48.1778 -14.1949 48.0907C-14.2491 48.0029 -14.2735 47.9614 -14.247 48.0058C-14.2202 48.0506 -14.1795 48.1192 -14.0972 48.2582L14.5887 31.2808L43.2746 14.3035C43.1445 14.0837 42.8532 13.5901 42.5503 13.099C42.2504 12.6126 41.6402 11.6375 40.8168 10.5072L13.8748 30.1347ZM11.665 29.6119L11.0881 62.9403C11.2545 62.9432 11.3405 62.9448 11.3994 62.946C11.4576 62.9473 11.4184 62.9468 11.3252 62.9435C11.233 62.9403 11.0136 62.9319 10.7136 62.9131C10.4116 62.8941 9.95896 62.8605 9.40195 62.799L13.0588 29.6668L16.7157 -3.46529C14.4989 -3.70996 12.2593 -3.71609 12.2419 -3.71639L11.665 29.6119ZM13.0588 29.6668L9.37979 62.7965C8.33237 62.6802 6.5154 62.4239 4.29657 61.7952C1.73395 61.069 -0.813881 60.0043 -3.24995 58.5841L13.5386 29.7873L30.3271 0.990487C24.7224 -2.27707 19.5177 -3.15413 16.7379 -3.46283L13.0588 29.6668ZM14.6698 27.8422L31.4305 -0.970777C25.4848 -4.42942 19.9647 -5.36921 16.9759 -5.70024L13.3065 27.4305L9.63696 60.5612C7.58263 60.3337 2.97652 59.603 -2.0909 56.6553L14.6698 27.8422ZM13.3065 27.4305L16.9694 -5.70096C14.6302 -5.95958 12.2977 -5.96565 12.2791 -5.96597L11.7037 27.3624L11.1284 60.6908C11.3129 60.6939 11.3857 60.6952 11.4523 60.6966C11.5088 60.6978 11.4722 60.6973 11.384 60.6942C11.2957 60.6911 11.0981 60.6832 10.8269 60.6659C10.5574 60.6487 10.1498 60.6179 9.64349 60.562L13.3065 27.4305ZM21.4113 31.2808L50.0986 48.2559C50.1809 48.1168 50.2215 48.0483 50.2482 48.0036C50.2747 47.9593 50.2501 48.001 50.1958 48.0892C50.1418 48.1767 50.0187 48.3748 49.845 48.6392C49.67 48.9057 49.4063 49.2968 49.0648 49.7654L22.1251 30.1347L-4.81453 10.504C-5.63972 11.6364 -6.25103 12.6134 -6.55131 13.1004C-6.85449 13.5922 -7.14611 14.0864 -7.27599 14.3058L21.4113 31.2808ZM22.1251 30.1347L49.0626 49.7685C48.4288 50.6381 47.2877 52.1083 45.6173 53.7394C43.6885 55.6228 41.5247 57.2644 39.1889 58.6196L22.4613 29.7873L5.73372 0.955038C0.230845 4.14764 -3.09276 8.14174 -4.81226 10.5009L22.1251 30.1347ZM21.3301 27.8422L4.56717 -0.96944C-1.25852 2.42001 -4.78876 6.64858 -6.631 9.17623L20.3068 28.8094L47.2447 48.4427C45.95 50.2191 43.0479 53.7712 38.0931 56.6539L21.3301 27.8422ZM20.3068 28.8094L-6.6319 9.17747C-7.47205 10.3303 -8.10558 11.3353 -8.45069 11.8939C-8.78962 12.4425 -9.11373 12.9932 -9.20727 13.1511L19.4749 30.1347L48.1572 47.1183C48.2501 46.9613 48.2835 46.9049 48.3148 46.8524C48.3405 46.8094 48.3175 46.8486 48.266 46.9319C48.2144 47.0154 48.1036 47.1931 47.947 47.4308C47.7913 47.6671 47.5546 48.0175 47.2456 48.4414L20.3068 28.8094ZM24.2962 27.3624L23.7209 -5.96597C23.702 -5.96564 21.3698 -5.95957 19.0308 -5.70099L22.6935 27.4305L26.3562 60.562C25.8501 60.6179 25.4426 60.6487 25.1731 60.6659C24.9018 60.6832 24.7042 60.6911 24.6159 60.6942C24.5278 60.6973 24.4911 60.6978 24.5477 60.6966C24.6143 60.6952 24.6871 60.6939 24.8716 60.6908L24.2962 27.3624ZM22.6935 27.4305L19.0241 -5.70025C16.0339 -5.36907 10.5154 -4.42906 4.57117 -0.971772L21.3301 27.8422L38.0891 56.6563C33.0233 59.6027 28.4186 60.3336 26.3629 60.5613L22.6935 27.4305ZM22.4613 29.7873L39.2331 58.5938C36.8058 60.0071 34.2638 61.0697 31.7019 61.7956C29.4843 62.4239 27.6681 62.6801 26.6204 62.7965L22.9411 29.6668L19.2619 -3.46281C16.4757 -3.15339 11.2826 -2.2757 5.68949 0.980748L22.4613 29.7873ZM22.9411 29.6668L26.5982 62.799C26.0412 62.8604 25.5885 62.8941 25.2865 62.9131C24.9864 62.9319 24.767 62.9403 24.6747 62.9435C24.5815 62.9468 24.5423 62.9473 24.6005 62.946C24.6594 62.9448 24.7454 62.9432 24.9118 62.9403L24.3349 29.6119L23.7581 -3.71639C23.7406 -3.71609 21.501 -3.70996 19.2841 -3.46527L22.9411 29.6668Z" fill="#E95623" mask="url(#path-1-inside-1_398_2232)"/>
<g opacity="0.5">
<path d="M12 13.5H24Z" fill="#E95623"/>
<path d="M12 13.5H24" stroke="#E95623" stroke-width="2" stroke-linecap="round"/>
</g>
<g opacity="0.5">
<path d="M12 18.75H20.25Z" fill="#E95623"/>
<path d="M12 18.75H20.25" stroke="#E95623" stroke-width="2" stroke-linecap="round"/>
</g>
</svg>
