<svg width="24" height="24" viewBox="0 0 24 24" fill="none" xmlns="http://www.w3.org/2000/svg">
<path opacity="0.1" d="M12 5C13.807 5 15.1226 5.09954 16.0986 5.31641C17.052 5.52829 17.555 5.82458 17.8652 6.13477C18.1754 6.44495 18.4717 6.94799 18.6836 7.90137C18.9005 8.87742 19 10.193 19 12C19 13.807 18.9005 15.1226 18.6836 16.0986C18.4717 17.052 18.1754 17.555 17.8652 17.8652C17.555 18.1754 17.052 18.4717 16.0986 18.6836C15.1226 18.9005 13.807 19 12 19C10.193 19 8.87742 18.9005 7.90137 18.6836C6.94799 18.4717 6.44495 18.1754 6.13477 17.8652C5.82458 17.555 5.52829 17.052 5.31641 16.0986C5.09954 15.1226 5 13.807 5 12C5 10.193 5.09954 8.87742 5.31641 7.90137C5.52829 6.94799 5.82458 6.44495 6.13477 6.13477C6.44495 5.82458 6.94799 5.52829 7.90137 5.31641C8.87742 5.09954 10.193 5 12 5ZM11.5 5.75C8.32436 5.75 5.75 8.32436 5.75 11.5C5.75 14.6757 8.32437 17.25 11.5 17.25C14.6757 17.25 17.25 14.6757 17.25 11.5C17.25 8.32437 14.6757 5.75 11.5 5.75Z" stroke="#EDEDED" stroke-width="4"/>
<path d="M3 12C3 4.5885 4.5885 3 12 3C19.4115 3 21 4.5885 21 12C21 19.4115 19.4115 21 12 21C4.5885 21 3 19.4115 3 12Z" stroke="#EDEDED"/>
<path d="M14 14L16 16" stroke="#EDEDED" stroke-linecap="round" stroke-linejoin="round"/>
<path d="M15 11.5C15 13.433 13.433 15 11.5 15C9.567 15 8 13.433 8 11.5C8 9.567 9.567 8 11.5 8C13.433 8 15 9.567 15 11.5Z" stroke="#EDEDED"/>
</svg>
