<svg width="24" height="24" viewBox="0 0 24 24" fill="none" xmlns="http://www.w3.org/2000/svg">
<path opacity="0.1" d="M12 19.3691C13.1075 18.988 14.8332 18.1786 16.5059 16.5059C18.1787 14.833 18.9891 13.1075 19.3701 12C18.9891 10.8925 18.1787 9.16699 16.5059 7.49414C14.833 5.82129 13.1075 5.01093 12 4.62988M12 19.3691V15.2158M12 19.3691V15.2158M12 19.3691C10.8925 18.988 9.16684 18.1786 7.49414 16.5059C5.82129 14.833 5.01093 13.1075 4.62988 12C5.01093 10.8925 5.82129 9.16699 7.49414 7.49414C8.93278 6.0555 10.4101 5.25399 11.5 4.81543M12 15.2158C13.8346 14.9713 15.25 13.4015 15.25 11.5C15.25 9.59846 13.8347 8.02766 12 7.7832M12 15.2158C11.8364 15.2376 11.6696 15.25 11.5 15.25C9.42893 15.25 7.75 13.5711 7.75 11.5C7.75 9.42893 9.42893 7.75 11.5 7.75M12 7.7832V4.62988M12 7.7832C11.8364 7.76141 11.6695 7.75 11.5 7.75M12 7.7832V4.62988M12 4.62988C11.8449 4.68323 11.6774 4.74403 11.5 4.81543M11.5 4.81543V7.75M11.5 4.81543V7.75" stroke="#1B1B1B" stroke-width="33.3333"/>
<path d="M3 12C3 4.5885 4.5885 3 12 3C19.4115 3 21 4.5885 21 12C21 19.4115 19.4115 21 12 21C4.5885 21 3 19.4115 3 12Z" stroke="#1B1B1B"/>
<path d="M14 14L16 16" stroke="#1B1B1B" stroke-linecap="round" stroke-linejoin="round"/>
<path d="M15 11.5C15 13.433 13.433 15 11.5 15C9.567 15 8 13.433 8 11.5C8 9.567 9.567 8 11.5 8C13.433 8 15 9.567 15 11.5Z" stroke="#1B1B1B"/>
</svg>
