<svg width="36" height="36" viewBox="0 0 36 36" fill="none" xmlns="http://www.w3.org/2000/svg">
<g clip-path="url(#clip0_398_2245)">
<path d="M6.75 0C3.04981 0 0 3.04981 0 6.75V29.25C0 32.9502 3.04981 36 6.75 36H29.25C32.9502 36 36 32.9502 36 29.25V6.75C36 3.04981 32.9502 0 29.25 0H6.75ZM6.75 4.5H29.25C30.5332 4.5 31.5 5.4668 31.5 6.75V29.25C31.5 30.5332 30.5332 31.5 29.25 31.5H6.75C5.4668 31.5 4.5 30.5332 4.5 29.25V6.75C4.5 5.4668 5.4668 4.5 6.75 4.5Z" fill="#E95623"/>
<path d="M9 15.75H27V20.25H9V15.75Z" fill="#E95623"/>
<path d="M20.25 9V27H15.75V9H20.25Z" fill="#E95623"/>
</g>
<defs>
<clipPath id="clip0_398_2245">
<rect width="36" height="36" fill="white"/>
</clipPath>
</defs>
</svg>
