<svg width="18" height="11" viewBox="0 0 18 11" fill="none" xmlns="http://www.w3.org/2000/svg">
<path fill-rule="evenodd" clip-rule="evenodd" d="M1.18211 9.49758C1.23969 9.55531 1.30809 9.60111 1.38339 9.63235C1.4587 9.6636 1.53943 9.67969 1.62096 9.67969C1.7025 9.67969 1.78323 9.6636 1.85853 9.63235C1.93384 9.60111 2.00224 9.55531 2.05982 9.49758L9.05923 2.49693L16.0586 9.49758C16.1163 9.55521 16.1847 9.60093 16.26 9.63212C16.3353 9.66331 16.416 9.67936 16.4975 9.67936C16.579 9.67936 16.6597 9.66331 16.735 9.63212C16.8103 9.60093 16.8787 9.55521 16.9364 9.49758C16.994 9.43995 17.0397 9.37153 17.0709 9.29623C17.1021 9.22093 17.1181 9.14023 17.1181 9.05872C17.1181 8.97722 17.1021 8.89652 17.0709 8.82122C17.0397 8.74592 16.994 8.6775 16.9364 8.61987L9.49809 1.1816C9.44051 1.12387 9.37211 1.07808 9.2968 1.04683C9.22149 1.01558 9.14076 0.999495 9.05923 0.999495C8.9777 0.999495 8.89697 1.01558 8.82166 1.04683C8.74635 1.07808 8.67795 1.12387 8.62037 1.1816L1.18211 8.61987C1.12438 8.67745 1.07858 8.74585 1.04733 8.82115C1.01609 8.89646 1 8.97719 1 9.05872C1 9.14026 1.01609 9.22099 1.04733 9.29629C1.07858 9.3716 1.12438 9.44 1.18211 9.49758Z" fill="#0D1846" stroke="#0D1846"/>
</svg>
